# xmcd
#
# Track frame offsets:
#	151
#	13426
#	31567
#	44588
#	61353
#	73364
#	103463
#	114772
#	127001
#	142444
#	153853
#	165972
#	177307
#	190912
#	202931
#	217248
#
# Disc length: 3071 seconds
#
# Revision: 0
# Processed by: cddbd v1.5.1PL0 Copyright (c) Steve Scherf et al.
# Submitted via: dBpowerAMP V4.0
#
DISCID=f40bfd10
DTITLE=IKE AND TINA TURNER - GHETTO FUNK
DYEAR=1900
DGENRE=
TTITLE0=A FOOL IN LOVE
TTITLE1=I'VE BEEN LOVING U 2 LONG
TTITLE2=POOR FOOL
TTITLE3=YOU SHOULDA TREATED ME RIGHT
TTITLE4=BOLD SOUL SISTER
TTITLE5=THE HUNTER
TTITLE6=GHETTO FUNK
TTITLE7=LET'S GET IT ON
TTITLE8=FUNKY MULE
TTITLE9=RAISE YOUR HAND
TTITLE10=DUST MY BROOM
TTITLE11=HONEST I DO
TTITLE12=TOO MUCH MAN FOR ONE WOMAN
TTITLE13=SO BLUE OVER YOU
TTITLE14=YOU GOT ME RUNNING
TTITLE15=STAGGER LEE AND RALLY
EXTD=
EXTT0=
EXTT1=
EXTT2=
EXTT3=
EXTT4=
EXTT5=
EXTT6=
EXTT7=
EXTT8=
EXTT9=
EXTT10=
EXTT11=
EXTT12=
EXTT13=
EXTT14=
EXTT15=
PLAYORDER=
